<svg xmlns="http://www.w3.org/2000/svg" viewBox="0 0 512 512"><defs><style>.cls-1{fill:#27273d;}.cls-2{fill:#fcc8bc;}.cls-3{fill:#fab3a7;}.cls-4{fill:#f58d89;}.cls-5{fill:#fff;}.cls-6{fill:#a65c3b;}.cls-7{fill:#9e4830;}.cls-8{fill:#ba6949;}.cls-9{fill:#f6c752;}.cls-10{fill:#41c0e3;}.cls-11{fill:#32314b;}.cls-12{fill:#e88032;}.cls-13{fill:#e2e2e2;}.cls-14{fill:#366fca;}.cls-15{fill:#2e61aa;}.cls-16{fill:#db1b1b;}.cls-17{fill:#c11a1a;}.cls-18{fill:#ead8b0;}.cls-19{fill:#fceabe;}.cls-20{fill:#e5e5e5;}.cls-21{fill:#f55b4b;}.cls-22{fill:#e0463b;}.cls-23{fill:#f9e1aa;}</style></defs><title>Cinema</title><g id="BULINE"><circle class="cls-1" cx="256" cy="256" r="256"/></g><g id="Icons"><path class="cls-2" d="M374.13,481.26q-7.28,4.78-14.81,9A256.06,256.06,0,0,1,93.08,453.47c5.42-28,12.61-56,29.54-79.28a114.94,114.94,0,0,1,41.08-34.95c13.52-6.79,40.37-6,44-23.23,2.14-10.14-5.74-29.52,2.36-36.59,6.93-6.05,48-5.24,51.28-2.55,5.88,4.81,1.17,19.46.52,25.86-2.46,23.88,13.25,23.23,30.24,32.79,50,23.23,68.63,70,77.94,119.88.17-.8,1.18,4.48,3.62,22.36,0,.25.07.49.1.74C373.88,479.42,374,480.34,374.13,481.26Z"/><path class="cls-2" d="M327.28,144.86V208c0,47.1-37.49,62.19-64.82,86.14a42,42,0,0,1-56,0c-27.33-23.95-64.82-39-64.82-86.14V144.86c0-.21,0-.42,0-.63.22-33,17.9-61.5,43.72-75.74.83-.47,1.69-.92,2.54-1.34a76.59,76.59,0,0,1,31.45-8.24c1.11-.06,2.23-.08,3.35-.08H246.2a78,78,0,0,1,51.55,19.63,82,82,0,0,1,6.21,6,88.19,88.19,0,0,1,23.19,55.57h0C327.24,141.66,327.28,143.25,327.28,144.86Z"/><path class="cls-3" d="M178.67,208V144.86c0-45.08,32.68-82.08,74.3-85.73-2.24-.21-4.49-.3-6.78-.3H222.7c-44.78,0-81.07,38.52-81.07,86v31.26a18.58,18.58,0,1,0,0,37.15h.18c2.69,43,38.34,57.85,64.62,80.88A41.93,41.93,0,0,0,253,300.49a43.42,43.42,0,0,1-9.5-6.35C216.15,270.19,178.67,255.1,178.67,208Z"/><circle class="cls-2" cx="327.27" cy="194.69" r="18.58"/><rect class="cls-3" x="220.69" y="213.27" width="26.99" height="10.23" rx="4.69"/><path class="cls-4" d="M142.16,187.31a7.39,7.39,0,1,0,0,14.77Z"/><path class="cls-3" d="M327.27,202.08a7.39,7.39,0,1,0,0-14.77Z"/><path class="cls-5" d="M212.64,240.71a1.82,1.82,0,0,0-1.82,2c1,12.23,11.07,23.55,23.36,23.55h0c12.3,0,22.38-11.32,23.37-23.55a1.82,1.82,0,0,0-1.82-2Z"/><path class="cls-6" d="M338.05,112.93l-10.57,63.19L318,124.27c-8.34-8.69-29.45-20.85-79.19-12.83-1.5.24-3,.5-4.58.78-21.61-3.89-38.09-4.09-50.61-2.36-17.46,2.41-27.22,8.59-32.47,13.76l-9.55,52.5L131.05,113c-2-11.81,1.54-24.06,9.79-32.17a28.46,28.46,0,0,1,3.7-3.11c-3-7.93-4.45-18.39-2.92-32.17,0,0,17.52,15.95,32.37,19.47,0,0-3.7-20.21,21.87-34.3l4.07,9.45s26.35-23.17,75.59-.36A80.18,80.18,0,0,1,310.15,73a26.23,26.23,0,0,1,19.08,8.83C336.82,89.9,340,101.64,338.05,112.93Z"/><path class="cls-7" d="M238.84,111.44c-1.5.24-3,.5-4.58.78-21.61-3.89-38.09-4.09-50.61-2.36C172.1,105.07,156,93.94,152.43,68.57c0,0,11.11,12.49,36,19.77,0,0-3.2-10.86,7.45-24.68,0,0,3,16.88,14.36,23.12,0,0,4.1-10.41,13.46-10.93C223.68,75.85,223.88,96.53,238.84,111.44Z"/><path class="cls-8" d="M268.26,46.7c.89,10.25-.14,25.09-10.6,36.28a2.62,2.62,0,0,0,2.08,4.42c6.93-.49,17.1-1.93,22.71-6.13a2.64,2.64,0,0,1,4.07,1.09c1.41,3.67,3.15,9.62,2.4,15.3a2.62,2.62,0,0,0,4.66,1.93c5-6.13,9.23-17.06,3-35.31a2.62,2.62,0,0,0-4.59-.69l-1,1.31a2.61,2.61,0,0,1-4.27-.06L273,45A2.61,2.61,0,0,0,268.26,46.7Z"/><path class="cls-9" d="M258.66,361.23V512c-.88,0-1.77,0-2.66,0a257,257,0,0,1-35.31-2.42q-5.26-.72-10.46-1.68V361.23a46.22,46.22,0,0,0,10.46,3.49,62.78,62.78,0,0,0,28-.29A69.57,69.57,0,0,0,258.66,361.23Z"/><path class="cls-10" d="M220.69,361.21V509.58A254.84,254.84,0,0,1,93.07,453.46c4.68-24.38,10.69-48.71,23.46-70a116.23,116.23,0,0,1,33.09-35.73c14.89-10.39,25-14.25,46.59-19.28l14.61,21.71,8.34,7.62A4.7,4.7,0,0,1,220.69,361.21Z"/><path class="cls-10" d="M374.13,481.26q-7.2,4.74-14.67,9l-.14.06A254.93,254.93,0,0,1,258.66,512c-.88,0-1.77,0-2.66,0-2.44,0-4.86,0-7.28-.11V361.21a4.7,4.7,0,0,1,1.53-3.46l8.34-7.62.08-.12,16.23-22.53c6,2.93,11.36,4.76,17.19,8,50,23.23,68.63,70,77.94,119.88.17-.8,1.18,4.48,3.62,22.36,0,.25.07.49.1.74C373.88,479.42,374,480.34,374.13,481.26Z"/><path class="cls-11" d="M207.77,304.83l-23.23,20.74a6.46,6.46,0,0,0-.07,9.6c3.91,3.54,11.53,8.6,26.34,14.95Z"/><path class="cls-11" d="M261.7,304.83l23.23,20.74a6.46,6.46,0,0,1,.07,9.6c-3.92,3.54-11.53,8.6-26.34,14.95Z"/><rect class="cls-12" x="258.88" y="391.04" width="53.31" height="16.64" rx="5.55"/><path class="cls-5" d="M319.58,162.33v30a6.42,6.42,0,0,1-4.46,6.07,14.19,14.19,0,0,0-8.95,8.94,6.42,6.42,0,0,1-6.06,4.47H252.88a7.69,7.69,0,0,1-7.66-7h0a24.19,24.19,0,0,0-3.67-11.21c-1.89-2.79-4.35-4.44-7-4.44-5.29,0-9.81,6.62-10.66,15.65h0a7.7,7.7,0,0,1-7.66,7H169a6.43,6.43,0,0,1-6.07-4.47,14.15,14.15,0,0,0-8.94-8.94,6.42,6.42,0,0,1-4.46-6.07v-30a6.11,6.11,0,0,1,6.11-6.12H313.46A6.12,6.12,0,0,1,319.58,162.33Z"/><path class="cls-13" d="M306.44,206.66c-.1.26-.2.53-.29.8a6.42,6.42,0,0,1-6.12,4.4H252.88a7.7,7.7,0,0,1-7.66-7,28,28,0,0,0-1.28-6.25,19.88,19.88,0,0,0-2.39-5c-1.89-2.79-4.35-4.45-7-4.45a7.06,7.06,0,0,0-4.14,1.43c2-3.77,4.86-6.1,8-6.1,2.65,0,5.1,1.66,7,4.44a20.06,20.06,0,0,1,2.39,5,29.26,29.26,0,0,1,1.28,6.26,7.69,7.69,0,0,0,7.66,7h47.14A6.53,6.53,0,0,0,306.44,206.66Z"/><rect class="cls-14" x="164.74" y="167.36" width="53.29" height="32.59" rx="7.48"/><path class="cls-15" d="M218,193a7.48,7.48,0,0,1-7.46,6.95H172.22a7.48,7.48,0,0,1-7.48-7.48V174.83a7.48,7.48,0,0,1,7-7.46,4.58,4.58,0,0,0,0,.53v17.63a7.48,7.48,0,0,0,7.48,7.48H217.5A4.61,4.61,0,0,0,218,193Z"/><rect class="cls-16" x="251.07" y="167.36" width="53.29" height="32.59" rx="7.48"/><path class="cls-17" d="M304.34,193a7.47,7.47,0,0,1-7.45,6.95H258.55a7.48,7.48,0,0,1-7.48-7.48V174.83a7.48,7.48,0,0,1,6.95-7.46c0,.17,0,.35,0,.53v17.63a7.48,7.48,0,0,0,7.48,7.48h38.34A4.43,4.43,0,0,0,304.34,193Z"/><path class="cls-18" d="M419,361.12a8.83,8.83,0,0,0,.12-1.37,8.68,8.68,0,0,0-8.68-8.68,8.67,8.67,0,0,0-13.82-7,4,4,0,0,0-3.95-3.41,3.89,3.89,0,0,0-2.06.58A6.52,6.52,0,0,0,380,338a8.66,8.66,0,0,0-13.47-3.15,8.66,8.66,0,0,0-17.11,1.42,6.5,6.5,0,0,0-9.16,1.44,4,4,0,0,0-5.4.15,6.53,6.53,0,0,0-11.63,1.68,6.51,6.51,0,0,0-9.37,5.86c0,.09,0,.18,0,.27a4,4,0,0,0-1.44-.27,4,4,0,0,0-4,4c0,.1,0,.2,0,.31a8.66,8.66,0,0,0-7,8.51,8.45,8.45,0,0,0,.41,2.62,6.52,6.52,0,0,0,.32,13,6.44,6.44,0,0,0,3-.75c7.55,10.15,28.4,17.45,52.94,17.45,25.74,0,47.42-8,53.95-19a6.52,6.52,0,1,0,7-10.46Z"/><path class="cls-19" d="M423.49,367.32a6.31,6.31,0,0,1-.3,1.95A6.48,6.48,0,0,0,419,365a8.94,8.94,0,0,0,.12-1.37,8.68,8.68,0,0,0-8.67-8.68,8.67,8.67,0,0,0-13.83-7,4,4,0,0,0-6-2.84,6.51,6.51,0,0,0-10.65-3.3,8.67,8.67,0,0,0-13.47-3.16,8.66,8.66,0,0,0-17.11,1.42,6.51,6.51,0,0,0-9.16,1.45,4,4,0,0,0-5.41.15,6.52,6.52,0,0,0-11.62,1.68,6.46,6.46,0,0,0-2.85-.66,6.52,6.52,0,0,0-6.52,6.52,2.44,2.44,0,0,0,0,.27,4,4,0,0,0-1.44-.27,4,4,0,0,0-4,4c0,.11,0,.21,0,.31a8.71,8.71,0,0,0-6.8,6.56,8.78,8.78,0,0,1-.22-1.93,8.66,8.66,0,0,1,7-8.51c0-.11,0-.21,0-.31a4,4,0,0,1,4-4,4,4,0,0,1,1.44.27,2.35,2.35,0,0,1,0-.27,6.52,6.52,0,0,1,6.52-6.52,6.46,6.46,0,0,1,2.85.66,6.52,6.52,0,0,1,11.62-1.68,4,4,0,0,1,5.41-.15,6.5,6.5,0,0,1,9.16-1.44,8.66,8.66,0,0,1,17.11-1.42A8.66,8.66,0,0,1,380,338a6.52,6.52,0,0,1,10.65,3.31,3.89,3.89,0,0,1,2.06-.58,4,4,0,0,1,3.95,3.41,8.67,8.67,0,0,1,13.83,7,8.67,8.67,0,0,1,8.67,8.67,8.94,8.94,0,0,1-.12,1.37A6.52,6.52,0,0,1,423.49,367.32Z"/><path class="cls-5" d="M419.53,379.29l-8.41,80.37q-8.79,6.72-18.16,12.65a254.19,254.19,0,0,1-33.5,17.92l-.14.06a255.2,255.2,0,0,1-36.45,12.88h-6.19a5.2,5.2,0,0,1-5.18-4.67L299,379.29Z"/><path class="cls-20" d="M419.53,379.29l-1.28,12.24H314.5l13.16,110.29-11,1.35a5.2,5.2,0,0,1-5.17-4.67L299,379.29Z"/><path class="cls-21" d="M420,379.29l-8.37,80q-9,6.92-18.63,13l6.48-93Z"/><path class="cls-21" d="M352.08,379.29V493.35q-7,2.85-14.24,5.28l-7.21-119.34Z"/><path class="cls-21" d="M385.48,379.29l-6.11,101.06q-7.51,4.17-15.34,7.81V379.29Z"/><polygon class="cls-22" points="419.96 379.29 418.68 391.52 398.59 391.52 399.44 379.29 419.96 379.29"/><polygon class="cls-22" points="352.08 379.29 352.08 391.52 331.37 391.52 330.63 379.29 352.08 379.29"/><polygon class="cls-22" points="385.48 379.29 384.74 391.52 364.03 391.52 364.03 379.29 385.48 379.29"/><path class="cls-21" d="M327.66,501.82q-2.39.71-4.79,1.35h-6.19a5.2,5.2,0,0,1-5.18-4.67L299,379.29h20.08Z"/><path class="cls-22" d="M327.66,501.82l-11,1.35a5.66,5.66,0,0,1-5.61-4.67L298.6,379.29h20.51l.86,12.24h0a4.92,4.92,0,0,0-4.9,5.43Z"/><rect class="cls-5" x="294.92" y="373.4" width="128.71" height="7.23" rx="3.62"/><path class="cls-19" d="M312.94,362.72l-.23-.16a6.94,6.94,0,0,0-9.57,2.23,7.1,7.1,0,0,0-.84,2,4.48,4.48,0,1,0,3.62,7.87,6.88,6.88,0,0,0,3.56.72,4.48,4.48,0,0,0,8.73-2,2,2,0,0,1,.86-2.16,5.25,5.25,0,1,0-6.13-8.49Z"/><path class="cls-23" d="M318.07,375.8a4.28,4.28,0,0,1-.81,1.43,4.47,4.47,0,0,1-7.78-1.85,6.88,6.88,0,0,1-3.56-.72,4.48,4.48,0,0,1-7-5.23,4.54,4.54,0,0,1,.94-1.39,4.48,4.48,0,0,0,7.09,4.9,6.79,6.79,0,0,0,3.56.73,4.42,4.42,0,0,0,2.36,3A4.48,4.48,0,0,0,318.07,375.8Z"/><path class="cls-5" d="M331.15,362.34l-.27-.07a6.94,6.94,0,0,0-8.31,7.57,4.48,4.48,0,1,0,6.12,6.13,6.82,6.82,0,0,0,3.59-.55,4.43,4.43,0,0,0,3.24,2,4.48,4.48,0,0,0,4.26-6.87,2,2,0,0,1,.05-2.33,5.24,5.24,0,1,0-8.68-5.85Z"/><path class="cls-20" d="M340.49,372.84a4.41,4.41,0,0,1-.27,1.62,4.48,4.48,0,0,1-4.7,2.93,4.43,4.43,0,0,1-3.24-2,6.82,6.82,0,0,1-3.59.55,4.48,4.48,0,0,1-8.34-2.5,4.34,4.34,0,0,1,.4-1.62,4.51,4.51,0,0,0,3,4.13,4.46,4.46,0,0,0,5.3-2,6.93,6.93,0,0,0,3.6-.54,4.48,4.48,0,0,0,7.8-.61Z"/><path class="cls-19" d="M357.68,370.05c.05-.08.11-.15.15-.23a6.94,6.94,0,0,0-2.46-9.51,7.22,7.22,0,0,0-2-.8,4.48,4.48,0,1,0-7.78,3.81,7,7,0,0,0-.64,3.58,4.48,4.48,0,0,0,2.22,8.68,2,2,0,0,1,2.19.8,5.17,5.17,0,0,0,2.36,1.94,5.24,5.24,0,0,0,6-8.27Z"/><path class="cls-23" d="M344.73,375.5a4.42,4.42,0,0,1-1.45-.77,4.48,4.48,0,0,1,1.65-7.83,7,7,0,0,1,.64-3.58,4.48,4.48,0,0,1,5.06-7.09,4.75,4.75,0,0,1,1.41.91,4.48,4.48,0,0,0-4.73,7.21,7,7,0,0,0-.64,3.57,4.49,4.49,0,0,0-1.94,7.58Z"/><path class="cls-5" d="M371.35,374.73l.28,0a7,7,0,0,0,7.48-6.37,7.09,7.09,0,0,0-.17-2.17,4.48,4.48,0,1,0-6.83-5.33,6.91,6.91,0,0,0-3.5,1,4.45,4.45,0,0,0-3.46-1.56,4.48,4.48,0,0,0-3.37,7.35A2,2,0,0,1,362,370a5.25,5.25,0,1,0,9.34,4.73Z"/><path class="cls-20" d="M360.79,365.46a4.34,4.34,0,0,1,.06-1.64,4.5,4.5,0,0,1,4.3-3.49,4.44,4.44,0,0,1,3.46,1.56,6.91,6.91,0,0,1,3.5-1,4.48,4.48,0,0,1,8.59,1.45,4.59,4.59,0,0,1-.2,1.67,4.48,4.48,0,0,0-8.55-1.11,6.91,6.91,0,0,0-3.5,1,4.47,4.47,0,0,0-7.66,1.56Z"/><path class="cls-19" d="M385.72,362.47l-.27.1a6.95,6.95,0,0,0-2.37,11,4.48,4.48,0,1,0,8.54,1.44,7,7,0,0,0,2.61-2.53,4.48,4.48,0,0,0,3.26-8.34,2,2,0,0,1-1.31-1.94,5.24,5.24,0,1,0-10.46.28Z"/><path class="cls-23" d="M399.41,365.6a4.65,4.65,0,0,1,.73,1.48,4.5,4.5,0,0,1-2.13,5.11,4.43,4.43,0,0,1-3.78.28,7,7,0,0,1-2.61,2.53,4.48,4.48,0,0,1-8.24,2.81,4.4,4.4,0,0,1-.62-1.56,4.48,4.48,0,0,0,8-3.1,6.81,6.81,0,0,0,2.61-2.52,4.48,4.48,0,0,0,6-5Z"/><path class="cls-5" d="M417.62,371l.19-.21a7,7,0,0,0-1-9.78A7.14,7.14,0,0,0,415,360a4.48,4.48,0,1,0-8.27,2.57,7,7,0,0,0-1.18,3.44,4.46,4.46,0,0,0-3.25,2,4.47,4.47,0,0,0,4.12,6.95,2,2,0,0,1,2,1.14,5.17,5.17,0,0,0,2,2.27,5.24,5.24,0,0,0,7.18-7.25Z"/><path class="cls-20" d="M404,374.43a4.62,4.62,0,0,1-1.32-1,4.52,4.52,0,0,1-.41-5.52,4.43,4.43,0,0,1,3.25-2,7,7,0,0,1,1.18-3.44,4.48,4.48,0,0,1,6.08-6.23A4.53,4.53,0,0,1,414,357.4a4.48,4.48,0,0,0-5.78,6.4,7,7,0,0,0-1.18,3.44,4.43,4.43,0,0,0-3.25,2A4.49,4.49,0,0,0,404,374.43Z"/><path class="cls-5" d="M366,339.42l-.17-.22a6.94,6.94,0,0,0-11.21.72,4.48,4.48,0,1,0,.95,8.61,6.81,6.81,0,0,0,3.14,1.81,4.47,4.47,0,0,0,1.3,3.57,4.48,4.48,0,0,0,7.62-2.71,2,2,0,0,1,1.5-1.79,5.18,5.18,0,0,0,2.62-1.56,5.24,5.24,0,0,0-5.75-8.43Z"/><path class="cls-20" d="M366.71,353.45a4.48,4.48,0,0,1-8-3.11,7,7,0,0,1-3.15-1.81,4.48,4.48,0,0,1-5-7.16,4.42,4.42,0,0,1,1.33-1,4.48,4.48,0,0,0,5.18,6.89,6.92,6.92,0,0,0,3.14,1.82,4.48,4.48,0,0,0,6.47,4.39Z"/><path class="cls-5" d="M402.87,343.61c0-.1,0-.19,0-.28a6.94,6.94,0,0,0-6.65-7.23,6.71,6.71,0,0,0-2.16.26,4.45,4.45,0,0,0-3.95-1.61,4.47,4.47,0,0,0-1.11,8.63,6.89,6.89,0,0,0,1.12,3.46,4.48,4.48,0,0,0,6.05,6.6,2,2,0,0,1,2.31-.32,5.24,5.24,0,1,0,4.37-9.51Z"/><path class="cls-20" d="M394,354.52a4.36,4.36,0,0,1-1.65,0,4.48,4.48,0,0,1-2.23-7.68,7,7,0,0,1-1.12-3.46,4.47,4.47,0,0,1,1.11-8.63,4.68,4.68,0,0,1,1.68.13,4.48,4.48,0,0,0-.78,8.58,7,7,0,0,0,1.13,3.46,4.44,4.44,0,0,0-1.42,3.52A4.49,4.49,0,0,0,394,354.52Z"/><path class="cls-5" d="M323.43,339.5l-.26.11a6.94,6.94,0,0,0-1.94,11.07,4.48,4.48,0,1,0,8.59,1.11,6.87,6.87,0,0,0,2.51-2.63,4.48,4.48,0,0,0,2.93-8.46,2,2,0,0,1-1.38-1.88,5.25,5.25,0,1,0-10.45.68Z"/><path class="cls-20" d="M337.24,342.1a4.42,4.42,0,0,1,.79,1.45,4.48,4.48,0,0,1-5.7,5.61,7,7,0,0,1-2.51,2.63,4.48,4.48,0,0,1-8.12,3.13,4.38,4.38,0,0,1-.68-1.54,4.48,4.48,0,0,0,7.92-3.4,6.92,6.92,0,0,0,2.5-2.63,4.48,4.48,0,0,0,5.8-5.25Z"/></g></svg>