<?xml version="1.0" encoding="iso-8859-1"?>
<!-- Generator: Adobe Illustrator 19.0.0, SVG Export Plug-In . SVG Version: 6.00 Build 0)  -->
<svg version="1.1" id="Layer_1" xmlns="http://www.w3.org/2000/svg" xmlns:xlink="http://www.w3.org/1999/xlink" x="0px" y="0px"
	 viewBox="0 0 512 512" style="enable-background:new 0 0 512 512;" xml:space="preserve">
<path style="fill:#FCD559;" d="M443.152,89.699H68.546c6.306-18.991,24.2-32.677,45.313-32.677c6.294,0,12.291,1.24,17.787,3.445
	C136.713,39.546,155.56,24,178.044,24c13.841,0,26.299,5.901,35.025,15.307c7.809-15.724,24.022-26.549,42.786-26.549
	c18.752,0,34.965,10.825,42.786,26.549C307.356,29.901,319.825,24,333.654,24c22.484,0,41.331,15.545,46.398,36.468
	c5.508-2.205,11.492-3.445,17.787-3.445C418.952,57.022,436.846,70.708,443.152,89.699z"/>
<path style="fill:#FCE195;" d="M398.818,129.04H112.881c-21.127,0-22.1-31.781-0.991-32.637c0.653-0.026,1.31-0.039,1.969-0.039
	c6.294,0,12.291,1.24,17.787,3.445c5.067-20.922,23.914-36.468,46.398-36.468c13.841,0,26.299,5.901,35.025,15.307
	c7.809-15.724,24.022-26.549,42.786-26.549c18.752,0,34.965,10.825,42.786,26.549c8.715-9.406,21.184-15.307,35.013-15.307
	c22.484,0,41.331,15.545,46.398,36.468c5.508-2.205,11.492-3.445,17.787-3.445c0.659,0,1.316,0.013,1.969,0.039
	C420.918,97.258,419.944,129.04,398.818,129.04z"/>
<path style="fill:#F7729B;" d="M436.798,123.222l-2.205,30.221l-23.458,321.742c-1.131,15.512-14.046,27.519-29.598,27.519H130.173
	c-15.553,0-28.467-12.007-29.598-27.518L77.106,153.443L74.9,123.222C74.9,123.222,436.798,123.222,436.798,123.222z"/>
<path style="fill:#E55C8D;" d="M185.686,475.186l-23.468-321.743l-2.205-30.221H74.9l2.205,30.221l23.468,321.743
	c1.131,15.511,14.046,27.518,29.598,27.518h85.112C199.732,502.704,186.817,490.696,185.686,475.186z"/>
<polygon style="fill:#F2F2F2;" points="384.022,123.222 382.46,153.443 364.423,502.704 297.234,502.704 304.113,153.443 
	304.709,123.222 "/>
<polygon style="fill:#F7729B;" points="304.709,123.222 304.113,153.443 297.234,502.704 214.464,502.704 207.585,153.443 
	206.989,123.222 "/>
<polygon style="fill:#F2F2F2;" points="214.464,502.68 214.464,502.704 147.287,502.704 129.238,153.443 127.676,123.222 
	206.989,123.222 207.585,153.443 "/>
<path style="fill:#CCCCCC;" d="M215.287,502.704h-68l-18.049-349.261l-1.562-30.221h32.331l2.205,30.221l23.473,321.746
	c1.109,15.236,13.59,27.085,28.778,27.491C214.738,502.704,215.012,502.704,215.287,502.704z"/>
<path style="fill:#F7729B;" d="M469.463,105.197v1.931c0,9.871-7.999,17.882-17.882,17.882h-14.783h-52.776h-79.313h-97.72h-79.313
	H74.9H60.118c-9.883,0-17.882-8.011-17.882-17.882v-1.931c0-9.883,7.999-17.882,17.882-17.882h8.428h374.606h8.428
	C461.463,87.315,469.463,95.314,469.463,105.197z"/>
<path d="M451.731,76.941h-2.38c-9.221-19.784-29.111-32.677-51.362-32.677c-4.078,0-8.115,0.436-12.073,1.303
	c-8.785-20.601-29.058-34.325-52.112-34.325c-11.898,0-23.47,3.793-33.033,10.646C290.158,8.17,273.827,0,256.005,0
	c-17.832,0-34.164,8.171-44.772,21.888c-9.569-6.852-21.144-10.647-33.039-10.647c-23.054,0-43.326,13.723-52.111,34.324
	c-3.954-0.865-7.991-1.301-12.073-1.301c-22.251,0-42.141,12.892-51.361,32.677h-2.381c-14.791,0-26.823,12.032-26.823,26.823v1.931
	c0,14.791,12.032,26.823,26.823,26.823h6.47L93.816,503.71c0.341,4.673,4.232,8.29,8.917,8.29H409.28
	c4.686,0,8.576-3.618,8.917-8.291l27.065-371.192h6.469c14.79,0,26.823-12.032,26.823-26.823v-1.931
	C478.554,88.973,466.52,76.941,451.731,76.941z M84.668,132.518h34.669l18.687,361.6h-26.978L84.668,132.518z M198.373,132.518
	l4.46,226.435c0.097,4.877,4.079,8.766,8.936,8.766c0.06,0,0.12,0,0.18-0.001c4.937-0.098,8.86-4.178,8.763-9.115l-4.454-226.083
	h79.484l-7.124,361.6h-65.236l-2.011-102.126c-0.097-4.877-4.079-8.766-8.936-8.766c-0.06,0-0.119,0-0.179,0.001
	c-4.938,0.098-8.861,4.178-8.763,9.115l2.004,101.774h-49.567l-18.687-361.6H198.373z M400.967,494.118h-26.978l11.899-230.401
	c0.255-4.932-3.537-9.135-8.469-9.39c-4.956-0.263-9.135,3.537-9.391,8.469l-11.946,231.323h-49.579l7.122-361.6h61.132
	l-5.015,97.109c-0.255,4.932,3.537,9.135,8.469,9.39c0.157,0.007,0.314,0.012,0.47,0.012c4.726,0,8.674-3.705,8.921-8.48
	l5.063-98.031h34.669L400.967,494.118z M460.672,105.695c0,4.931-4.01,8.941-8.941,8.941H60.268c-4.931,0-8.941-4.012-8.941-8.941
	v-1.931c0-4.929,4.01-8.941,8.941-8.941h294.089c4.939,0,8.941-4.003,8.941-8.941s-4.002-8.941-8.941-8.941H83.535
	c7.206-9.154,18.316-14.794,30.476-14.794c4.959,0,9.823,0.943,14.457,2.802c2.409,0.968,5.118,0.839,7.426-0.349
	s3.983-3.321,4.595-5.844c4.225-17.446,19.731-29.631,37.709-29.631c10.913,0,21.023,4.42,28.471,12.447
	c1.998,2.153,4.921,3.187,7.834,2.768c2.906-0.421,5.422-2.241,6.73-4.872c6.608-13.314,19.935-21.585,34.775-21.585
	c14.83,0,28.157,8.272,34.779,21.588c1.309,2.63,3.826,4.45,6.732,4.868c2.906,0.42,5.836-0.618,7.831-2.773
	c7.327-7.907,17.7-12.444,28.455-12.444c17.977,0,33.484,12.185,37.709,29.631c0.61,2.521,2.285,4.653,4.591,5.841
	c2.307,1.19,5.014,1.317,7.422,0.354c4.648-1.861,9.514-2.805,14.464-2.805c12.16,0,23.269,5.64,30.476,14.794h-42.516
	c-4.939,0-8.941,4.003-8.941,8.941c0,4.938,4.002,8.941,8.941,8.941h65.782c4.931,0,8.941,4.01,8.941,8.941V105.695z"/>
<g>
</g>
<g>
</g>
<g>
</g>
<g>
</g>
<g>
</g>
<g>
</g>
<g>
</g>
<g>
</g>
<g>
</g>
<g>
</g>
<g>
</g>
<g>
</g>
<g>
</g>
<g>
</g>
<g>
</g>
</svg>
